<svg width="14" height="14" viewBox="0 0 14 14" fill="none" xmlns="http://www.w3.org/2000/svg">
<path id="Vector" d="M2.90016 10.4C3.46683 9.96668 4.10016 9.62501 4.80016 9.37501C5.50016 9.12501 6.2335 9.00001 7.00016 9.00001C7.76683 9.00001 8.50016 9.12501 9.20016 9.37501C9.90016 9.62501 10.5335 9.96668 11.1002 10.4C11.4891 9.94445 11.7918 9.42779 12.0085 8.85001C12.2252 8.27223 12.3335 7.65557 12.3335 7.00001C12.3335 5.52223 11.8141 4.2639 10.7752 3.22501C9.73627 2.18612 8.47794 1.66668 7.00016 1.66668C5.52238 1.66668 4.26405 2.18612 3.22516 3.22501C2.18627 4.2639 1.66683 5.52223 1.66683 7.00001C1.66683 7.65557 1.77516 8.27223 1.99183 8.85001C2.2085 9.42779 2.51127 9.94445 2.90016 10.4ZM7.00016 7.66668C6.34461 7.66668 5.79183 7.44168 5.34183 6.99168C4.89183 6.54168 4.66683 5.9889 4.66683 5.33334C4.66683 4.67779 4.89183 4.12501 5.34183 3.67501C5.79183 3.22501 6.34461 3.00001 7.00016 3.00001C7.65572 3.00001 8.2085 3.22501 8.6585 3.67501C9.1085 4.12501 9.3335 4.67779 9.3335 5.33334C9.3335 5.9889 9.1085 6.54168 8.6585 6.99168C8.2085 7.44168 7.65572 7.66668 7.00016 7.66668ZM7.00016 13.6667C6.07794 13.6667 5.21127 13.4917 4.40016 13.1417C3.58905 12.7917 2.8835 12.3167 2.2835 11.7167C1.6835 11.1167 1.2085 10.4111 0.858496 9.60001C0.508496 8.7889 0.333496 7.92223 0.333496 7.00001C0.333496 6.07779 0.508496 5.21112 0.858496 4.40001C1.2085 3.5889 1.6835 2.88334 2.2835 2.28334C2.8835 1.68334 3.58905 1.20834 4.40016 0.858343C5.21127 0.508343 6.07794 0.333344 7.00016 0.333344C7.92238 0.333344 8.78905 0.508343 9.60016 0.858343C10.4113 1.20834 11.1168 1.68334 11.7168 2.28334C12.3168 2.88334 12.7918 3.5889 13.1418 4.40001C13.4918 5.21112 13.6668 6.07779 13.6668 7.00001C13.6668 7.92223 13.4918 8.7889 13.1418 9.60001C12.7918 10.4111 12.3168 11.1167 11.7168 11.7167C11.1168 12.3167 10.4113 12.7917 9.60016 13.1417C8.78905 13.4917 7.92238 13.6667 7.00016 13.6667ZM7.00016 12.3333C7.58905 12.3333 8.14461 12.2472 8.66683 12.075C9.18905 11.9028 9.66683 11.6556 10.1002 11.3333C9.66683 11.0111 9.18905 10.7639 8.66683 10.5917C8.14461 10.4195 7.58905 10.3333 7.00016 10.3333C6.41127 10.3333 5.85572 10.4195 5.3335 10.5917C4.81127 10.7639 4.3335 11.0111 3.90016 11.3333C4.3335 11.6556 4.81127 11.9028 5.3335 12.075C5.85572 12.2472 6.41127 12.3333 7.00016 12.3333ZM7.00016 6.33334C7.28905 6.33334 7.52794 6.2389 7.71683 6.05001C7.90572 5.86112 8.00016 5.62223 8.00016 5.33334C8.00016 5.04445 7.90572 4.80557 7.71683 4.61668C7.52794 4.42779 7.28905 4.33334 7.00016 4.33334C6.71127 4.33334 6.47238 4.42779 6.2835 4.61668C6.09461 4.80557 6.00016 5.04445 6.00016 5.33334C6.00016 5.62223 6.09461 5.86112 6.2835 6.05001C6.47238 6.2389 6.71127 6.33334 7.00016 6.33334Z" fill="white"/>
</svg>
