<svg width="18" height="14" viewBox="0 0 18 14" fill="none" xmlns="http://www.w3.org/2000/svg">
<path id="Vector" d="M2.33317 13.6666C1.87484 13.6666 1.48248 13.5035 1.15609 13.1771C0.829698 12.8507 0.666504 12.4583 0.666504 12V1.99998C0.666504 1.54165 0.829698 1.14929 1.15609 0.822896C1.48248 0.496507 1.87484 0.333313 2.33317 0.333313H15.6665C16.1248 0.333313 16.5172 0.496507 16.8436 0.822896C17.17 1.14929 17.3332 1.54165 17.3332 1.99998V12C17.3332 12.4583 17.17 12.8507 16.8436 13.1771C16.5172 13.5035 16.1248 13.6666 15.6665 13.6666H2.33317ZM8.99984 7.83331L2.33317 3.66665V12H15.6665V3.66665L8.99984 7.83331ZM8.99984 6.16665L15.6665 1.99998H2.33317L8.99984 6.16665ZM2.33317 3.66665V1.99998V12V3.66665Z" fill="white"/>
</svg>
