<svg width="14" height="14" viewBox="0 0 14 14" fill="none" xmlns="http://www.w3.org/2000/svg">
<path id="Vector" d="M7 13.75C5.275 13.75 3.77188 13.1781 2.49063 12.0344C1.20937 10.8906 0.475 9.4625 0.2875 7.75H1.825C2 9.05 2.57812 10.125 3.55938 10.975C4.54063 11.825 5.6875 12.25 7 12.25C8.4625 12.25 9.70312 11.7406 10.7219 10.7219C11.7406 9.70312 12.25 8.4625 12.25 7C12.25 5.5375 11.7406 4.29688 10.7219 3.27813C9.70312 2.25938 8.4625 1.75 7 1.75C6.1375 1.75 5.33125 1.95 4.58125 2.35C3.83125 2.75 3.2 3.3 2.6875 4H4.75V5.5H0.25V1H1.75V2.7625C2.3875 1.9625 3.16563 1.34375 4.08438 0.90625C5.00313 0.46875 5.975 0.25 7 0.25C7.9375 0.25 8.81563 0.428125 9.63438 0.784375C10.4531 1.14063 11.1656 1.62188 11.7719 2.22813C12.3781 2.83438 12.8594 3.54688 13.2156 4.36563C13.5719 5.18438 13.75 6.0625 13.75 7C13.75 7.9375 13.5719 8.81563 13.2156 9.63438C12.8594 10.4531 12.3781 11.1656 11.7719 11.7719C11.1656 12.3781 10.4531 12.8594 9.63438 13.2156C8.81563 13.5719 7.9375 13.75 7 13.75ZM9.1 10.15L6.25 7.3V3.25H7.75V6.7L10.15 9.1L9.1 10.15Z" fill="white"/>
</svg>
