<svg width="16" height="16" viewBox="0 0 16 16" fill="none" xmlns="http://www.w3.org/2000/svg">
<g id="assignment_24dp_7C7C7C_FILL0_wght400_GRAD0_opsz24 1">
<path id="Vector" d="M3.33333 14.0001C2.96667 14.0001 2.65278 13.8695 2.39167 13.6084C2.13056 13.3473 2 13.0334 2 12.6667V3.33341C2 2.96675 2.13056 2.65286 2.39167 2.39175C2.65278 2.13064 2.96667 2.00008 3.33333 2.00008H6.13333C6.27778 1.60008 6.51944 1.27786 6.85833 1.03341C7.19722 0.78897 7.57778 0.666748 8 0.666748C8.42222 0.666748 8.80278 0.78897 9.14167 1.03341C9.48056 1.27786 9.72222 1.60008 9.86667 2.00008H12.6667C13.0333 2.00008 13.3472 2.13064 13.6083 2.39175C13.8694 2.65286 14 2.96675 14 3.33341V12.6667C14 13.0334 13.8694 13.3473 13.6083 13.6084C13.3472 13.8695 13.0333 14.0001 12.6667 14.0001H3.33333ZM3.33333 12.6667H12.6667V3.33341H3.33333V12.6667ZM4.66667 11.3334H9.33333V10.0001H4.66667V11.3334ZM4.66667 8.66675H11.3333V7.33341H4.66667V8.66675ZM4.66667 6.00008H11.3333V4.66675H4.66667V6.00008ZM8 2.83341C8.14444 2.83341 8.26389 2.78619 8.35833 2.69175C8.45278 2.5973 8.5 2.47786 8.5 2.33341C8.5 2.18897 8.45278 2.06953 8.35833 1.97508C8.26389 1.88064 8.14444 1.83341 8 1.83341C7.85556 1.83341 7.73611 1.88064 7.64167 1.97508C7.54722 2.06953 7.5 2.18897 7.5 2.33341C7.5 2.47786 7.54722 2.5973 7.64167 2.69175C7.73611 2.78619 7.85556 2.83341 8 2.83341Z" fill="white"/>
</g>
</svg>
