<svg width="12" height="12" viewBox="0 0 12 12" fill="none" xmlns="http://www.w3.org/2000/svg">
<g id="translate_24dp_7C7C7C_FILL0_wght400_GRAD0_opsz24 1">
<path id="Vector" d="M5.95 11L8.225 5H9.275L11.55 11H10.5L9.9625 9.475H7.5375L7 11H5.95ZM2 9.5L1.3 8.8L3.825 6.275C3.53333 5.98333 3.26875 5.65 3.03125 5.275C2.79375 4.9 2.575 4.475 2.375 4H3.425C3.59167 4.325 3.75833 4.60833 3.925 4.85C4.09167 5.09167 4.29167 5.33333 4.525 5.575C4.8 5.3 5.08542 4.91458 5.38125 4.41875C5.67708 3.92292 5.9 3.45 6.05 3H0.5V2H4V1H5V2H8.5V3H7.05C6.875 3.6 6.6125 4.21667 6.2625 4.85C5.9125 5.48333 5.56667 5.96667 5.225 6.3L6.425 7.525L6.05 8.55L4.525 6.9875L2 9.5ZM7.85 8.6H9.65L8.75 6.05L7.85 8.6Z" fill="white"/>
</g>
</svg>
