<svg width="14" height="12" viewBox="0 0 14 12" fill="none" xmlns="http://www.w3.org/2000/svg">
<g id="verified_user_24dp_7C7C7C_FILL0_wght400_GRAD0_opsz24 11">
<path id="Vector" d="M6.38766 7.775L9.6835 4.95L8.85225 4.2375L6.38766 6.35L5.16266 5.3L4.33141 6.0125L6.38766 7.775ZM7.00016 11C5.64877 10.7083 4.53315 10.0437 3.65329 9.00625C2.77343 7.96875 2.3335 6.81667 2.3335 5.55V2.5L7.00016 1L11.6668 2.5V5.55C11.6668 6.81667 11.2269 7.96875 10.347 9.00625C9.46718 10.0437 8.35155 10.7083 7.00016 11ZM7.00016 9.95C8.01127 9.675 8.84739 9.125 9.5085 8.3C10.1696 7.475 10.5002 6.55833 10.5002 5.55V3.1875L7.00016 2.0625L3.50016 3.1875V5.55C3.50016 6.55833 3.83072 7.475 4.49183 8.3C5.15294 9.125 5.98905 9.675 7.00016 9.95Z" fill="#0DB561"/>
</g>
</svg>
